<mxfile host="app.diagrams.net" modified="2024-07-10T13:48:15.402Z" agent="Mozilla/5.0 (Windows NT 10.0; Win64; x64; rv:127.0) Gecko/20100101 Firefox/127.0" version="24.6.4" etag="58v6GYe5-memUmMa3fxH" type="github">
  <diagram name="Page-1" id="m8vLl5kpedoVtYi5uSvE">
    <mxGraphModel>
      <root>
        <mxCell id="0" />
        <mxCell id="1" parent="0" />
      </root>
    </mxGraphModel>
  </diagram>
</mxfile>
